<?xml version="1.0" encoding="utf-8"?>
<!-- Generator: Adobe Illustrator 28.0.0, SVG Export Plug-In . SVG Version: 6.00 Build 0)  -->
<svg version="1.1" id="Слой_1" xmlns="http://www.w3.org/2000/svg" xmlns:xlink="http://www.w3.org/1999/xlink" x="0px" y="0px"
	 viewBox="0 0 595.28 217.4" style="enable-background:new 0 0 595.28 217.4;" xml:space="preserve">
<style type="text/css">
	.st0{fill:#616065;}
</style>
<g>
	<g>
		<g>
			<path class="st0" d="M120.57,133.18c-5.02,0-8.9-1.38-11.65-4.15c-2.75-2.77-4.13-6.67-4.13-11.71v-6.01
				c0-4.99,1.38-8.85,4.13-11.58c2.75-2.73,6.64-4.1,11.65-4.1c2.86,0,5.44,0.5,7.73,1.51c2.3,1.01,4.12,2.45,5.48,4.32l-5.17,4.64
				c-1.01-1.17-2.2-2.07-3.59-2.71s-2.84-0.95-4.36-0.95c-2.77,0-4.91,0.77-6.43,2.32s-2.29,3.73-2.29,6.54v6.01
				c0,2.88,0.76,5.11,2.29,6.68c1.52,1.57,3.67,2.36,6.43,2.36c1.52,0,2.98-0.34,4.36-1.02c1.38-0.68,2.58-1.64,3.59-2.88l5.17,4.99
				c-1.36,1.83-3.19,3.24-5.5,4.24S123.41,133.18,120.57,133.18z"/>
			<path class="st0" d="M155.69,133.18c-4.78,0-8.48-1.39-11.11-4.17s-3.94-6.69-3.94-11.72v-5.94c0-4.99,1.31-8.86,3.94-11.6
				s6.33-4.11,11.11-4.11s8.48,1.37,11.11,4.11s3.94,6.61,3.94,11.6v6.05c0,5.02-1.31,8.9-3.94,11.65
				C164.18,131.81,160.48,133.18,155.69,133.18z M155.69,126.36c2.51,0,4.45-0.79,5.82-2.36c1.37-1.57,2.06-3.77,2.06-6.61v-6.05
				c0-2.84-0.69-5.03-2.06-6.57s-3.31-2.32-5.82-2.32c-2.48,0-4.42,0.77-5.8,2.32s-2.07,3.74-2.07,6.57v6.05
				c0,2.84,0.69,5.04,2.07,6.61C151.28,125.58,153.21,126.36,155.69,126.36z"/>
			<path class="st0" d="M180.94,132.66V96.16h7.17v36.49H180.94z M203.08,132.66v-22.11c0-2.58-0.66-4.57-1.99-5.98
				s-3.21-2.11-5.64-2.11c-2.34,0-4.15,0.62-5.43,1.86c-1.28,1.24-1.92,2.99-1.92,5.24l-0.74-7.03c1.12-2.2,2.6-3.9,4.41-5.1
				s3.83-1.79,6.03-1.79c3.96,0,7.03,1.3,9.19,3.88c2.17,2.59,3.25,6.25,3.25,10.99v22.15H203.08z"/>
			<path class="st0" d="M234.06,133.18c-3.23,0-6.17-0.47-8.81-1.42s-5-2.37-7.08-4.27l4.25-5.24c1.99,1.5,3.96,2.62,5.89,3.38
				c1.93,0.75,3.85,1.12,5.75,1.12c2.84,0,4.96-0.44,6.38-1.32s2.13-2.2,2.13-3.96c0-1.36-0.47-2.32-1.42-2.88s-2.19-0.93-3.73-1.11
				s-3.18-0.32-4.94-0.44c-1.48-0.12-2.94-0.3-4.39-0.54s-2.78-0.69-3.97-1.34c-1.2-0.64-2.15-1.6-2.87-2.87s-1.07-2.96-1.07-5.1
				c0-3.87,1.18-6.76,3.55-8.68c2.37-1.92,5.89-2.88,10.58-2.88c2.86,0,5.52,0.39,7.98,1.16s4.77,1.96,6.93,3.55l-4.32,5.24
				c-1.83-1.17-3.63-2.05-5.4-2.64c-1.77-0.59-3.5-0.88-5.19-0.88c-2.44,0-4.27,0.42-5.48,1.25c-1.22,0.83-1.83,2.08-1.83,3.74
				c0,1.1,0.42,1.89,1.27,2.37c0.84,0.48,1.96,0.79,3.34,0.93s2.87,0.27,4.46,0.39c1.52,0.09,3.06,0.26,4.62,0.51
				s2.99,0.72,4.31,1.42s2.37,1.75,3.16,3.13c0.8,1.38,1.2,3.27,1.2,5.66c0,3.91-1.27,6.84-3.81,8.79
				C242.99,132.21,239.17,133.18,234.06,133.18z"/>
			<path class="st0" d="M255.68,102.63v-6.47h16.45v6.47H255.68z M267.98,132.83c-3,0-5.17-0.83-6.52-2.5
				c-1.35-1.66-2.02-4.05-2.02-7.17V85.55h7.17v37.69c0,0.87,0.18,1.55,0.53,2.04s0.87,0.74,1.55,0.74h3.45v6.82H267.98z"/>
			<path class="st0" d="M281.98,132.66V96.16h7.17v36.49H281.98z M302.05,104.81c-0.63-0.77-1.43-1.36-2.39-1.76
				c-0.96-0.4-2.07-0.6-3.34-0.6c-2.27,0-4.04,0.63-5.29,1.88c-1.25,1.25-1.88,2.99-1.88,5.22l-0.74-7.03
				c1.1-2.16,2.55-3.84,4.34-5.06c1.79-1.22,3.77-1.83,5.92-1.83c1.66,0,3.17,0.24,4.52,0.72c1.35,0.48,2.53,1.19,3.53,2.13
				L302.05,104.81z"/>
			<path class="st0" d="M319.87,96.16v22.18c0,2.55,0.65,4.53,1.95,5.92c1.3,1.39,3.13,2.09,5.5,2.09s4.19-0.63,5.47-1.88
				c1.28-1.25,1.92-3.02,1.92-5.29l0.49,7.63c-0.66,1.64-1.8,3.11-3.45,4.41s-3.79,1.95-6.43,1.95c-4.03,0-7.14-1.29-9.33-3.88
				c-2.19-2.59-3.29-6.24-3.29-10.95V96.16H319.87z M334.71,132.66V96.16h7.14v36.49H334.71z"/>
			<path class="st0" d="M367.48,133.18c-5.02,0-8.9-1.38-11.65-4.15c-2.75-2.77-4.13-6.67-4.13-11.71v-6.01
				c0-4.99,1.38-8.85,4.13-11.58c2.75-2.73,6.64-4.1,11.65-4.1c2.86,0,5.44,0.5,7.73,1.51c2.3,1.01,4.12,2.45,5.48,4.32l-5.17,4.64
				c-1.01-1.17-2.2-2.07-3.59-2.71s-2.84-0.95-4.36-0.95c-2.77,0-4.91,0.77-6.43,2.32s-2.29,3.73-2.29,6.54v6.01
				c0,2.88,0.76,5.11,2.29,6.68c1.52,1.57,3.67,2.36,6.43,2.36c1.52,0,2.98-0.34,4.36-1.02c1.38-0.68,2.58-1.64,3.59-2.88l5.17,4.99
				c-1.36,1.83-3.19,3.24-5.5,4.24S370.31,133.18,367.48,133.18z"/>
			<path class="st0" d="M385.79,102.63v-6.47h16.45v6.47H385.79z M398.1,132.83c-3,0-5.17-0.83-6.52-2.5
				c-1.35-1.66-2.02-4.05-2.02-7.17V85.55h7.17v37.69c0,0.87,0.18,1.55,0.53,2.04s0.87,0.74,1.55,0.74h3.45v6.82H398.1z"/>
			<path class="st0" d="M426.08,133.18c-4.78,0-8.48-1.39-11.11-4.17s-3.94-6.69-3.94-11.72v-5.94c0-4.99,1.31-8.86,3.94-11.6
				s6.33-4.11,11.11-4.11s8.48,1.37,11.11,4.11s3.94,6.61,3.94,11.6v6.05c0,5.02-1.31,8.9-3.94,11.65
				C434.57,131.81,430.86,133.18,426.08,133.18z M426.08,126.36c2.51,0,4.45-0.79,5.82-2.36c1.37-1.57,2.06-3.77,2.06-6.61v-6.05
				c0-2.84-0.69-5.03-2.06-6.57s-3.31-2.32-5.82-2.32c-2.48,0-4.42,0.77-5.8,2.32s-2.07,3.74-2.07,6.57v6.05
				c0,2.84,0.69,5.04,2.07,6.61C421.66,125.58,423.6,126.36,426.08,126.36z"/>
			<path class="st0" d="M451.32,132.66V96.16h7.17v36.49H451.32z M471.4,104.81c-0.63-0.77-1.43-1.36-2.39-1.76
				c-0.96-0.4-2.07-0.6-3.34-0.6c-2.27,0-4.04,0.63-5.29,1.88c-1.25,1.25-1.88,2.99-1.88,5.22l-0.74-7.03
				c1.1-2.16,2.55-3.84,4.34-5.06c1.79-1.22,3.77-1.83,5.92-1.83c1.66,0,3.17,0.24,4.52,0.72c1.35,0.48,2.53,1.19,3.53,2.13
				L471.4,104.81z"/>
		</g>
	</g>
</g>
</svg>
